<?xml version="1.0" encoding="utf-8"?>
<!-- Generator: Adobe Illustrator 27.0.1, SVG Export Plug-In . SVG Version: 6.00 Build 0)  -->
<svg version="1.1" id="Layer_1" xmlns="http://www.w3.org/2000/svg" xmlns:xlink="http://www.w3.org/1999/xlink" x="0px" y="0px"
	 viewBox="0 0 420 420" style="enable-background:new 0 0 420 420;" xml:space="preserve">
<style type="text/css">
	.st0{fill:#7398B7;}
	.st1{fill:#A4D2F1;}
	.st2{fill:#E39EC1;}
	.st3{fill:#D70C7A;}
	.st4{fill:#385372;}
	.st5{fill:#FFFFFF;}
	.st6{fill:#01173E;stroke:#01173E;stroke-width:0.5;stroke-miterlimit:10;}
	.st7{fill:#FFFFFF;stroke:#FFFFFF;stroke-width:0.25;stroke-miterlimit:10;}
</style>
<g>
	<g>
		<g>
			<g>
				<g>
					<path class="st0" d="M262.55,129.61l60.42-89.82C249.35-8.93,157.81-6.13,87.66,46.49l66.94,84.74
						C185.94,109.34,228.67,107.42,262.55,129.61z"/>
				</g>
				<g>
					<path class="st1" d="M330.38,44.92l-60.62,89.92c30.46,24.2,42.76,63.88,33.08,100.15l104.29,30.17l0.03-0.01
						C430.57,180.95,400.53,95.61,330.38,44.92z"/>
				</g>
				<g>
					<path class="st2" d="M404.57,273.78l-104.44-30.26c-2.53,6.85-5.86,13.52-10.07,19.86c-17.34,26.16-45.26,41.1-74.34,42.92
						V414.8C302.09,410.28,378.22,355.45,404.57,273.78z"/>
				</g>
				<g>
					<path class="st3" d="M206.83,306.45c-17.33-0.52-34.74-5.7-50.26-15.98c-16.71-11.08-28.85-26.47-35.91-43.73l-102.18,35.3
						c30.81,82.4,100.91,134.02,188.2,133.05L206.83,306.45z"/>
				</g>
				<g>
					<path class="st4" d="M129.49,156.97c5.15-7.77,20.61-22.4,20.61-22.4L80.57,52.05c-66.75,54.48-91.74,140.2-65.05,221.53
						l102.11-35.38C109.57,211.67,112.97,181.88,129.49,156.97z"/>
				</g>
				<g>
					<path class="st5" d="M242.01,36.88h-8.62v7.83l-9.24,6.02l-2.73-1.65V33.29l-8.72,4.36V26.13l-15.58,10.24v22.63l-4.08,2.14
						v11.73h2.6V62.7l6.09-3.2l14.5,8.36v2.96h-12.03v2.6h37.65v-0.56h0.15V36.88z M235.98,46.11v-6.64h3.43v31.34h-10.39V53.67
						l-2.41-1.46L235.98,46.11z M218.83,37.49v11.59l-6.12,2.9V40.56L218.83,37.49z M199.73,57.62V37.76l10.39-6.82v30.39
						l-8.32-4.79L199.73,57.62z M212.71,62.83v-7.98l7.44-3.52l6.29,3.8v15.68h-7.6v-4.46L212.71,62.83z"/>
				</g>
				<g>
					<g>
						<g>
							<g>
								<defs>
									<path id="SVGID_1_" d="M229.89,249.47c-5.13,0-10.01-0.28-13.7-0.68c-2.04-0.22-4.31-0.69-6.66-1.3
										c1.09,13.24,2.49,28.67,2.85,32.64c27.99-1,51.69-18.81,61.32-43.63c-3.37,2.04-11.58,6.4-21.19,10.1
										C246.9,248.74,238.08,249.47,229.89,249.47"/>
								</defs>
								<use xlink:href="#SVGID_1_"  style="overflow:visible;fill:#001230;"/>
								<clipPath id="SVGID_00000176021513034625573910000016204868684320033697_">
									<use xlink:href="#SVGID_1_"  style="overflow:visible;"/>
								</clipPath>
							</g>
							<g>
								<defs>
									<path id="SVGID_00000109028172939341754300000015337986750275794835_" d="M161.98,231.25c12.27,0.28,23.13,4.05,27.61,6.24
										c2.19,1.06,5.85,2.66,9.96,4.22c0.39-14.32,1.09-29.33,1.09-29.33s-0.53,1.6-2.66,1.73c-2.13,0.13-2.93-1.6-2.79-3.72
										c0.13-2.13,3.32-4.39,3.32-4.39s-1.06,0.13-2.26,0.4c-1.2,0.27-4.12,1.99-7.04,8.64c-2.93,6.65-2.13,14.62-2.13,14.62
										s-1.46-2.93-1.73-6.91c-0.27-3.99,0.4-6.91,0.4-6.91s-1.33,1.06-2.79,2.66c-1.46,1.6-4.79,8.51-4.79,8.51
										s0.66-4.12,2.93-9.7c2.26-5.59,7.58-10.9,7.58-10.9s-1.06,0.27-2.93,0.93c-1.86,0.66-5.32,3.85-5.32,3.85
										s4.39-7.18,10.1-9.7c5.71-2.53,11.03-1.2,11.03-1.2s-0.66-1.6-2.13-2.26c-1.46-0.66-4.25-1.33-7.44-0.8
										c-3.19,0.53-8.91,3.99-8.91,3.99s2.66-3.19,4.52-4.39c1.86-1.2,5.72-1.86,5.72-1.86s-4.26-0.8-9.04,0.13
										c-4.79,0.93-9.17,3.85-9.17,3.85s1.86-2.39,5.19-4.92c3.32-2.53,6.33-1.89,6.33-1.89s-2.74-1.83-7.67-1.65
										c-4.93,0.18-12.61,3.29-12.61,3.29s5.12-6.03,11.88-7.31c6.76-1.28,13.16,3.84,13.16,3.84s-1.28-3.47-4.93-5.66
										c-3.65-2.19-12.79-5.12-12.79-5.12s8.22,0.37,14.98,2.01c6.76,1.65,11.88,7.31,11.88,7.31s0-3.11-4.93-8.59
										c-4.93-5.48-14.62-8.04-14.62-8.04s2.19-0.37,6.21-0.18c4.02,0.18,7.67,3.1,7.67,3.1s-1.83-3.29-4.38-6.03
										c-2.56-2.74-9.32-5.3-9.32-5.3s2.74-0.73,6.58,0.73c3.84,1.46,6.39,4.38,6.39,4.38s-1.2-3.08-3.19-6.14
										c-1.99-3.06-7.31-7.18-7.31-7.18l2.26,1.2c2.26,1.2,9.17,4.38,14.36,10.37c5.18,5.98,6.25,15.42,6.25,15.42
										s1.46-5.45,0-11.7c-1.46-6.25-6.38-11.57-6.38-11.57s3.32,1.33,7.84,6.12c4.52,4.78,5.32,10.37,5.32,10.37
										s-0.27-8.24-1.33-11.96c-1.06-3.72-5.98-8.11-5.98-8.11s2.93-0.27,6.91,3.32c3.99,3.59,4.65,7.05,4.65,7.05
										s0.93-4.52,5.72-7.05c4.79-2.53,9.84-1.73,9.84-1.73s-4.65,1.6-10.24,8.37c-5.58,6.78-4.52,11.96-4.52,11.96
										s1.73-4.92,6.51-9.84c4.78-4.92,9.97-4.39,9.97-4.39s-2.39,1.06-6.78,5.05c-4.39,3.99-4.39,7.58-4.39,7.58
										s2.79-4.39,9.97-5.98c7.18-1.6,12.1,2.53,12.1,2.53s-5.19-0.93-8.64-0.13c-3.46,0.8-5.59,3.19-5.59,3.19
										s3.19-0.66,7.05,0.4c3.86,1.06,5.98,4.12,5.98,4.12s-8.51-2.13-15.82-0.66c-7.31,1.46-9.57,6.78-9.57,6.78
										s4.65-2.53,11.83-3.72c7.18-1.2,13.56,1.6,13.56,1.6s-6.38-0.13-11.03,1.2s-5.72,3.59-5.72,3.59s10.24-1.33,20.21,0.8
										c9.97,2.13,14.22,9.97,14.22,9.97s-5.58-3.99-11.57-5.19c-5.98-1.2-9.44-0.66-9.44-0.66s1.6,0.13,6.65,3.72
										c5.05,3.59,5.72,8.64,5.72,8.64s-1.46-2.39-3.06-3.99c-1.59-1.6-7.84-5.58-13.16-6.51c-5.32-0.93-8.37,0-8.37,0
										s3.59,0.27,9.44,3.19c5.85,2.93,5.72,9.97,5.72,9.97s-2.93-3.85-5.32-5.58c-2.39-1.73-9.7-5.85-15.29-6.11
										c-5.58-0.27-9.3,1.73-9.3,1.73s1.86-0.66,10.24,1.33c8.37,1.99,10.5,8.91,10.5,8.91s-4.25-4.26-8.77-5.59
										c-4.52-1.33-7.84-0.93-7.84-0.93s4.65,0.13,11.17,11.7c6.51,11.57,4.12,20.87,4.12,20.87s-0.4-5.32-4.26-13.69
										c-3.85-8.37-11.17-10.37-11.17-10.37s3.99,4.12,4.25,9.04c0.27,4.92-4.25,8.24-4.25,8.24s0.93-2.13,1.06-4.26
										c0.13-2.13,1.33-3.85-2.26-9.7c-3.59-5.85-7.05-5.19-7.05-5.19s1.46,0.53,2.13,1.99c0.67,1.46,1.2,3.99-0.53,4.52
										c-1.73,0.53-4.52-1.86-4.52-1.86s0.66,4.65,1.2,15.55c0.16,3.19,0.58,8.91,1.11,15.43c2.56,0.71,5.01,1.24,7.13,1.46
										c5.18,0.56,11.72,0.78,17.49,0.61c7.66-0.23,13.78-1.16,17.71-2.66c10.36-3.98,19.01-8.72,21.58-10.39
										c0.7-0.45,1.29-0.85,1.79-1.19c2.14-6.63,3.3-13.69,3.3-21.02c0-37.79-30.63-68.42-68.42-68.42s-68.42,30.63-68.42,68.42
										c0,7.82,1.31,15.33,3.73,22.33C148.01,232.91,153.79,231.06,161.98,231.25"/>
								</defs>
								<use xlink:href="#SVGID_00000109028172939341754300000015337986750275794835_"  style="overflow:visible;fill:#001230;"/>
								<clipPath id="SVGID_00000072243371006918201550000000184592678463397051_">
									<use xlink:href="#SVGID_00000109028172939341754300000015337986750275794835_"  style="overflow:visible;"/>
								</clipPath>
							</g>
							<g>
								<defs>
									<path id="SVGID_00000085950719812401396690000012148225596665968281_" d="M199.48,244.24c-4.81-1.79-8.96-3.64-10.94-4.6
										c-4.01-1.95-14.74-5.72-26.62-5.99c-7.2-0.17-12.89,1.41-15.91,2.68c8.75,22.73,29.27,39.6,54.09,43.16
										c-0.23-2.5-0.71-8.96-0.81-20.45C199.27,254.94,199.35,249.71,199.48,244.24"/>
								</defs>
								<use xlink:href="#SVGID_00000085950719812401396690000012148225596665968281_"  style="overflow:visible;fill:#001230;"/>
								<clipPath id="SVGID_00000124877604389000768530000002128778617880662172_">
									<use xlink:href="#SVGID_00000085950719812401396690000012148225596665968281_"  style="overflow:visible;"/>
								</clipPath>
							</g>
						</g>
					</g>
					<g>
						<g>
							<g>
								<path class="st6" d="M136.63,175.61l-8.68-5.16l-1.88,3.17l-1.67-0.99l4.86-8.18l1.67,0.99l-1.88,3.17l8.68,5.16
									L136.63,175.61z"/>
								<path class="st6" d="M141.24,168.34l-9.43-7.48l4.95-6.25l1.52,1.21l-3.62,4.57l2.32,1.84l3.43-4.33l1.52,1.2l-3.43,4.33
									l2.56,2.03l3.81-4.81l1.52,1.2L141.24,168.34z"/>
								<path class="st6" d="M152.32,155.62l-3.43-12.67l1.45-1.16l11.57,6.16l-1.91,1.53l-2.6-1.45l-4.07,3.26l0.87,2.83
									L152.32,155.62z M152.75,149.4l2.92-2.34l-4.51-2.67L152.75,149.4z"/>
								<path class="st6" d="M167.6,132.59l-0.84,1.89c-1.04-0.32-1.97-0.24-2.79,0.22c-1.06,0.61-1.72,1.46-1.98,2.55
									c-0.26,1.09-0.08,2.17,0.52,3.23c0.65,1.13,1.51,1.87,2.59,2.22c1.08,0.35,2.15,0.22,3.21-0.39
									c0.91-0.52,1.45-1.39,1.62-2.61l2.16,0.22c-0.2,1.76-1.14,3.12-2.84,4.09c-1.62,0.93-3.24,1.18-4.84,0.77
									c-1.6-0.42-2.87-1.44-3.79-3.06c-0.95-1.66-1.2-3.29-0.75-4.9c0.45-1.6,1.49-2.87,3.11-3.79
									C164.48,132.17,166.01,132.03,167.6,132.59z"/>
								<path class="st6" d="M172.78,135c-0.66-1.8-0.63-3.45,0.08-4.95c0.71-1.5,1.94-2.58,3.7-3.22c1.77-0.68,3.41-0.68,4.92,0
									c1.52,0.68,2.6,1.92,3.26,3.72c0.64,1.76,0.61,3.38-0.11,4.88s-1.96,2.59-3.73,3.27c-1.76,0.64-3.39,0.62-4.9-0.05
									C174.5,137.97,173.43,136.76,172.78,135z M174.84,134.1c0.45,1.22,1.18,2.1,2.18,2.62s2.08,0.58,3.23,0.16
									c1.16-0.42,1.96-1.16,2.38-2.21c0.43-1.05,0.42-2.19-0.03-3.41c-0.42-1.15-1.13-1.98-2.14-2.48
									c-1.01-0.51-2.08-0.55-3.23-0.13s-1.94,1.15-2.38,2.18C174.43,131.86,174.42,132.95,174.84,134.1z"/>
								<path class="st6" d="M190,135.38l-1.91-11.88l3.22-0.52l4.51,7.82l1.87-8.84l3.19-0.51l1.91,11.88l-2.01,0.32l-1.58-9.87
									l-0.03,0.01l-2.03,10.45l-1.48,0.24l-5.19-9.29l-0.03,0.01l1.58,9.87L190,135.38z"/>
								<path class="st6" d="M206.77,133.22l0.2-12.04l4.05,0.07c1.3,0.02,2.36,0.31,3.18,0.87s1.22,1.45,1.2,2.69
									c-0.01,0.59-0.11,1.1-0.29,1.53c-0.18,0.43-0.42,0.77-0.71,1.03c-0.29,0.26-0.65,0.46-1.08,0.6
									c-0.43,0.15-0.87,0.24-1.31,0.29s-0.93,0.06-1.49,0.05l-1.53-0.03l-0.08,4.98L206.77,133.22z M209.03,126.44l1.29,0.02
									c0.31,0,0.56,0,0.77,0c0.21-0.01,0.45-0.04,0.73-0.1c0.28-0.06,0.5-0.14,0.68-0.25s0.32-0.28,0.45-0.49
									c0.13-0.22,0.2-0.49,0.2-0.8c0.02-1.12-0.83-1.7-2.54-1.72l-1.53-0.02L209.03,126.44z"/>
								<path class="st6" d="M217.16,133.37l7.06-11.07l1.83,0.29l3.24,12.7l-2.42-0.38l-0.68-2.9l-5.16-0.82l-1.51,2.55
									L217.16,133.37z M222.04,129.49l3.69,0.59l-1.06-5.13L222.04,129.49z"/>
								<path class="st6" d="M231.77,135.96l3.85-11.41l2.69,0.91l2.67,10.34l0.03,0.01l2.86-8.47l2.03,0.68l-3.85,11.41l-2.58-0.87
									l-2.69-10.65l-0.03-0.01l-2.95,8.75L231.77,135.96z M239.13,124.81l-1.06-0.36c0.7-1.28,1.53-1.76,2.49-1.44
									c0.32,0.11,0.72,0.35,1.2,0.74s0.78,0.6,0.92,0.64c0.35,0.12,0.68-0.02,0.97-0.43l1.06,0.36c-0.7,1.28-1.53,1.76-2.49,1.44
									c-0.32-0.11-0.72-0.36-1.19-0.74c-0.47-0.39-0.78-0.6-0.92-0.65C239.76,124.25,239.44,124.4,239.13,124.81z"/>
								<path class="st6" d="M244.46,140.41l10.31-8.12l1.63,0.88l-1.13,13.06l-2.16-1.16l0.32-2.96l-4.6-2.47l-2.26,1.91
									L244.46,140.41z M250.35,138.36l3.29,1.77l0.69-5.19L250.35,138.36z"/>
								<path class="st6" d="M257.48,147.64l7.5-9.41l2.55,2.04l-2.75,8.6l7.8-4.57l2.53,2.01l-7.5,9.41l-1.59-1.27l6.23-7.82
									l-0.03-0.02l-9.09,5.54l-1.17-0.93l3.38-10.09l-0.03-0.02l-6.23,7.82L257.48,147.64z"/>
								<path class="st6" d="M274.49,154.12c1.46-1.25,3.01-1.8,4.67-1.66c1.66,0.14,3.09,0.92,4.31,2.34
									c1.26,1.42,1.83,2.95,1.72,4.61c-0.11,1.66-0.89,3.11-2.34,4.36c-1.42,1.22-2.96,1.75-4.62,1.6
									c-1.66-0.15-3.11-0.93-4.37-2.35c-1.22-1.42-1.77-2.96-1.66-4.61C272.3,156.77,273.07,155.34,274.49,154.12z M276.05,155.74
									c-0.99,0.85-1.55,1.83-1.69,2.96c-0.14,1.13,0.19,2.15,0.99,3.08c0.8,0.94,1.77,1.43,2.91,1.46
									c1.13,0.04,2.2-0.37,3.19-1.22c0.93-0.8,1.46-1.75,1.58-2.87c0.12-1.12-0.21-2.14-1.01-3.07s-1.75-1.42-2.88-1.46
									C278.01,154.57,276.98,154.94,276.05,155.74z"/>
								<path class="st6" d="M293.42,171.06l-2.22-0.47c0.3-0.72,0.2-1.48-0.29-2.29c-0.29-0.46-0.64-0.79-1.06-0.98
									s-0.85-0.15-1.29,0.11c-0.32,0.2-0.51,0.48-0.57,0.85c-0.06,0.37-0.04,0.77,0.08,1.19c0.11,0.42,0.22,0.89,0.32,1.42
									c0.1,0.52,0.17,1.02,0.2,1.49c0.03,0.47-0.08,0.95-0.33,1.44c-0.25,0.49-0.66,0.91-1.23,1.26
									c-1.05,0.65-2.08,0.79-3.08,0.42c-1-0.37-1.84-1.08-2.5-2.16c-0.9-1.46-1.12-2.86-0.68-4.21l2.18,0.55
									c-0.42,0.91-0.36,1.81,0.18,2.69c0.29,0.46,0.66,0.8,1.14,1.02c0.47,0.21,0.93,0.19,1.37-0.09c0.3-0.18,0.5-0.43,0.6-0.74
									s0.13-0.64,0.07-1c-0.05-0.36-0.14-0.75-0.24-1.16c-0.11-0.41-0.2-0.84-0.27-1.27s-0.1-0.86-0.07-1.26s0.17-0.82,0.42-1.22
									c0.25-0.4,0.62-0.75,1.12-1.06c0.99-0.61,1.99-0.71,2.98-0.3c0.99,0.41,1.81,1.14,2.44,2.17
									C293.41,168.69,293.66,169.89,293.42,171.06z"/>
							</g>
						</g>
						<g>
							<g>
								<path class="st6" d="M121.29,196.44l11.98,1.18l-0.47,4.72c-0.17,1.69-0.83,3.08-1.98,4.16c-1.16,1.08-2.69,1.53-4.61,1.34
									c-0.98-0.1-1.85-0.38-2.6-0.85c-0.75-0.47-1.33-1.04-1.74-1.71c-0.41-0.67-0.7-1.38-0.87-2.14
									c-0.18-0.75-0.23-1.5-0.15-2.25L121.29,196.44z M123,198.76l-0.16,1.59c-0.14,1.44,0.07,2.65,0.65,3.61s1.55,1.51,2.93,1.65
									c1.39,0.14,2.45-0.17,3.19-0.91c0.74-0.74,1.18-1.81,1.31-3.19l0.19-1.95L123,198.76z"/>
								<path class="st6" d="M132.39,221.19l-7.61,0.21c-1.43,0.04-2.58-0.38-3.47-1.27c-0.89-0.89-1.35-2.03-1.39-3.44
									c-0.04-1.4,0.36-2.58,1.2-3.51c0.83-0.94,1.97-1.42,3.39-1.46l7.61-0.21l0.06,2.14l-7.55,0.21
									c-0.71,0.02-1.34,0.26-1.89,0.71c-0.55,0.45-0.81,1.14-0.78,2.07c0.03,0.93,0.33,1.6,0.9,2.02c0.57,0.42,1.22,0.62,1.93,0.6
									l7.54-0.21L132.39,221.19z"/>
								<path class="st6" d="M120.91,226.81l11.87-2l0.69,4.12c0.08,0.48,0.13,0.93,0.13,1.36c0.01,0.42-0.04,0.84-0.13,1.26
									c-0.1,0.41-0.25,0.78-0.45,1.09s-0.5,0.59-0.87,0.82c-0.38,0.23-0.82,0.39-1.33,0.47c-0.87,0.15-1.64,0.03-2.29-0.35
									c-0.66-0.38-1.12-1-1.39-1.85l-4.71,4.04l-0.43-2.55l4.56-3.6l-0.26-1.54l-5.03,0.85L120.91,226.81z M128.1,227.77
									l0.28,1.64c0.05,0.29,0.1,0.54,0.15,0.73c0.05,0.2,0.13,0.42,0.23,0.66c0.1,0.24,0.23,0.43,0.36,0.57
									c0.14,0.14,0.32,0.24,0.55,0.31c0.23,0.07,0.49,0.08,0.78,0.03c0.34-0.06,0.6-0.17,0.8-0.35c0.2-0.18,0.33-0.4,0.39-0.68
									c0.06-0.27,0.08-0.53,0.08-0.78c-0.01-0.25-0.04-0.53-0.09-0.86l-0.31-1.83L128.1,227.77z"/>
								<path class="st6" d="M123.09,238.88l13.08,1.07l0.6,1.75l-9.72,8.79l-0.79-2.32l2.24-1.95l-1.68-4.94l-2.96-0.14
									L123.09,238.88z M128.8,241.39l1.21,3.54l4.04-3.33L128.8,241.39z"/>
								<path class="st6" d="M128.96,254.55l10.4-6.06l1.43,2.45l-4.79,9.54l0.02,0.03l7.73-4.5l1.08,1.85l-10.4,6.06l-1.37-2.35
									l4.98-9.79l-0.02-0.03l-7.98,4.65L128.96,254.55z"/>
								<path class="st6" d="M139.53,270.35l7.61-6.63l-2.42-2.78l1.46-1.27l6.25,7.18l-1.46,1.27l-2.42-2.78l-7.61,6.63
									L139.53,270.35z"/>
								<path class="st6" d="M146.51,277.7l7.66-9.28l6.15,5.08l-1.23,1.5l-4.5-3.71l-1.88,2.28l4.26,3.52l-1.23,1.5l-4.26-3.52
									l-2.08,2.52l4.73,3.91l-1.23,1.5L146.51,277.7z"/>
								<path class="st6" d="M165.54,290.55l4.39-9.09l-3.32-1.6l0.84-1.75l8.57,4.14l-0.84,1.75l-3.32-1.6l-4.39,9.09
									L165.54,290.55z"/>
								<path class="st6" d="M175.88,288.8c0.54-1.84,1.55-3.15,3.02-3.93c1.47-0.78,3.1-0.91,4.89-0.38
									c1.83,0.5,3.14,1.48,3.95,2.94c0.81,1.45,0.94,3.1,0.4,4.93c-0.53,1.79-1.53,3.08-3,3.85c-1.47,0.78-3.12,0.91-4.94,0.41
									c-1.79-0.53-3.09-1.52-3.9-2.96C175.48,292.21,175.35,290.59,175.88,288.8z M178.07,289.3c-0.37,1.25-0.31,2.38,0.19,3.41
									c0.5,1.02,1.33,1.71,2.5,2.05c1.18,0.35,2.26,0.23,3.23-0.35c0.97-0.59,1.64-1.5,2.01-2.75c0.35-1.17,0.27-2.26-0.24-3.27
									c-0.51-1.01-1.34-1.68-2.52-2.03c-1.17-0.35-2.24-0.24-3.21,0.33C179.07,287.26,178.41,288.13,178.07,289.3z"/>
								<path class="st6" d="M191.29,299.03l1.44-11.95l4.71,0.57c1.69,0.2,3.06,0.9,4.12,2.07c1.06,1.18,1.47,2.72,1.24,4.64
									c-0.12,0.98-0.42,1.84-0.9,2.58c-0.48,0.74-1.07,1.31-1.75,1.7s-1.4,0.67-2.15,0.83s-1.5,0.19-2.25,0.1L191.29,299.03z
									 M193.64,297.37l1.59,0.19c1.44,0.17,2.65-0.02,3.62-0.57c0.98-0.56,1.55-1.52,1.71-2.89c0.17-1.38-0.11-2.45-0.84-3.21
									c-0.73-0.76-1.78-1.22-3.16-1.38l-1.94-0.24L193.64,297.37z"/>
								<path class="st6" d="M206.08,294.59c-0.08-1.91,0.45-3.48,1.58-4.69c1.13-1.21,2.64-1.86,4.5-1.94
									c1.89-0.11,3.45,0.39,4.69,1.5c1.24,1.11,1.9,2.62,1.98,4.54c0.08,1.87-0.46,3.41-1.6,4.62c-1.14,1.21-2.66,1.87-4.55,1.98
									c-1.87,0.08-3.42-0.44-4.65-1.54S206.16,296.46,206.08,294.59z M208.31,294.36c0.05,1.3,0.48,2.36,1.28,3.16
									c0.8,0.81,1.81,1.18,3.03,1.13c1.23-0.05,2.22-0.51,2.95-1.38c0.73-0.87,1.07-1.96,1.01-3.26
									c-0.05-1.22-0.48-2.23-1.28-3.02c-0.8-0.79-1.82-1.16-3.04-1.11c-1.22,0.05-2.2,0.5-2.93,1.36S208.26,293.14,208.31,294.36z
									"/>
								<path class="st6" d="M231,297.91l-3.15-11.62l7.7-2.09l0.51,1.87l-5.63,1.53l0.77,2.85l5.33-1.45l0.51,1.87l-5.33,1.45
									l0.85,3.15l5.92-1.61l0.51,1.87L231,297.91z"/>
								<path class="st6" d="M243.43,294.14l-4.62-11.12l1.98-0.82l3.87,9.33l4.73-1.96l0.74,1.79L243.43,294.14z"/>
								<path class="st6" d="M260.26,285.76l-6.95-9.83l3.3-2.34c1.06-0.75,2.09-1.14,3.08-1.18c0.99-0.03,1.84,0.45,2.55,1.46
									c0.34,0.48,0.56,0.95,0.67,1.4c0.1,0.45,0.12,0.87,0.04,1.24s-0.25,0.75-0.52,1.12c-0.26,0.37-0.56,0.71-0.88,1
									c-0.33,0.29-0.72,0.6-1.17,0.92l-1.25,0.88l2.87,4.07L260.26,285.76z M258.07,278.95l1.06-0.75
									c0.25-0.18,0.46-0.33,0.62-0.46c0.17-0.13,0.34-0.3,0.53-0.51c0.19-0.21,0.32-0.41,0.4-0.6c0.07-0.19,0.1-0.41,0.07-0.66
									c-0.03-0.25-0.13-0.51-0.31-0.77c-0.65-0.92-1.67-0.88-3.07,0.11l-1.25,0.88L258.07,278.95z"/>
								<path class="st6" d="M270.82,277.77l-8.44-8.58l2.98-2.93c0.35-0.34,0.69-0.64,1.04-0.89c0.34-0.25,0.71-0.45,1.1-0.61
									c0.39-0.16,0.78-0.24,1.16-0.25c0.38-0.01,0.77,0.07,1.17,0.25c0.4,0.17,0.79,0.45,1.15,0.82c0.62,0.63,0.96,1.33,1.02,2.08
									c0.06,0.76-0.18,1.49-0.72,2.2l6.01,1.55l-1.84,1.81l-5.56-1.68l-1.12,1.1l3.58,3.64L270.82,277.77z M267.48,271.33
									l1.19-1.17c0.21-0.21,0.38-0.39,0.51-0.54c0.13-0.16,0.27-0.34,0.41-0.57c0.14-0.22,0.22-0.43,0.26-0.62
									c0.03-0.19,0.01-0.4-0.06-0.63c-0.07-0.23-0.21-0.45-0.42-0.66c-0.24-0.24-0.49-0.39-0.75-0.46
									c-0.26-0.06-0.52-0.04-0.78,0.07c-0.26,0.11-0.49,0.24-0.68,0.39c-0.2,0.15-0.41,0.33-0.65,0.57l-1.32,1.3L267.48,271.33z"
									/>
								<path class="st6" d="M275.09,264.98c-1.58-1.08-2.52-2.44-2.81-4.08c-0.29-1.64,0.08-3.23,1.14-4.77
									c1.04-1.58,2.38-2.54,4.01-2.86c1.63-0.33,3.24,0.05,4.82,1.13c1.54,1.06,2.46,2.4,2.75,4.04c0.29,1.64-0.09,3.25-1.13,4.83
									c-1.06,1.54-2.4,2.48-4.02,2.8C278.22,266.4,276.63,266.04,275.09,264.98z M276.24,263.05c1.08,0.74,2.18,1.03,3.3,0.87
									c1.12-0.16,2.03-0.74,2.72-1.75c0.7-1.02,0.92-2.08,0.66-3.19c-0.26-1.11-0.93-2.03-2-2.76c-1.01-0.69-2.07-0.95-3.18-0.78
									c-1.11,0.17-2.02,0.76-2.71,1.77c-0.69,1.01-0.91,2.06-0.67,3.16C274.61,261.47,275.23,262.36,276.24,263.05z"/>
								<path class="st6" d="M283.83,239.96l0.47,2.01c-1.02,0.38-1.72,1-2.09,1.86c-0.48,1.13-0.49,2.2-0.04,3.23
									c0.45,1.03,1.25,1.78,2.37,2.26c1.2,0.51,2.33,0.58,3.41,0.21c1.07-0.37,1.85-1.12,2.33-2.25c0.41-0.96,0.31-1.98-0.28-3.06
									l1.85-1.13c0.9,1.52,0.97,3.18,0.21,4.97c-0.74,1.72-1.87,2.9-3.39,3.53c-1.53,0.64-3.15,0.59-4.87-0.15
									c-1.76-0.75-2.95-1.9-3.55-3.45c-0.61-1.55-0.55-3.18,0.19-4.9C281.1,241.52,282.23,240.47,283.83,239.96z"/>
								<path class="st6" d="M294.75,239.7l-11.67-2.93l1.94-7.73l1.88,0.47l-1.42,5.66l2.87,0.72l1.34-5.36l1.88,0.47l-1.34,5.36
									l3.17,0.79l1.49-5.95l1.88,0.47L294.75,239.7z"/>
								<path class="st6" d="M287.37,218.28l1.46,1.74c-0.68,0.38-1.08,1.04-1.19,1.99c-0.06,0.54,0.01,1.02,0.23,1.43
									c0.21,0.41,0.57,0.65,1.08,0.71c0.37,0.04,0.7-0.06,0.98-0.31c0.28-0.25,0.5-0.58,0.68-0.98c0.17-0.4,0.38-0.84,0.62-1.31
									c0.24-0.47,0.5-0.91,0.77-1.3c0.27-0.39,0.65-0.7,1.15-0.93s1.08-0.3,1.75-0.23c1.23,0.14,2.12,0.67,2.68,1.58
									c0.56,0.91,0.77,1.99,0.63,3.24c-0.2,1.7-0.89,2.94-2.07,3.73l-1.37-1.78c0.9-0.46,1.41-1.19,1.52-2.22
									c0.06-0.54-0.03-1.04-0.26-1.5c-0.24-0.46-0.62-0.72-1.13-0.78c-0.35-0.04-0.66,0.03-0.93,0.21
									c-0.27,0.18-0.5,0.43-0.68,0.74c-0.18,0.32-0.35,0.67-0.52,1.06s-0.36,0.78-0.57,1.17c-0.21,0.39-0.45,0.73-0.73,1.04
									c-0.28,0.3-0.64,0.54-1.08,0.7c-0.45,0.16-0.96,0.21-1.53,0.14c-1.16-0.13-2-0.67-2.53-1.61c-0.52-0.94-0.72-2.01-0.58-3.22
									C285.91,220.15,286.45,219.05,287.37,218.28z"/>
								<path class="st6" d="M292.78,215.39c-1.91,0.03-3.46-0.54-4.65-1.7c-1.18-1.17-1.79-2.68-1.82-4.55
									c-0.06-1.89,0.48-3.44,1.62-4.65c1.14-1.21,2.67-1.83,4.59-1.86c1.87-0.03,3.4,0.54,4.58,1.71c1.18,1.17,1.8,2.7,1.87,4.6
									c0.03,1.87-0.52,3.41-1.66,4.61C296.15,214.75,294.65,215.36,292.78,215.39z M292.61,213.15c1.3-0.02,2.37-0.42,3.19-1.2
									c0.83-0.78,1.23-1.78,1.21-3c-0.02-1.23-0.45-2.23-1.3-2.98c-0.85-0.75-1.93-1.12-3.23-1.1c-1.22,0.02-2.24,0.42-3.05,1.2
									c-0.81,0.78-1.21,1.79-1.18,3.01c0.02,1.22,0.45,2.21,1.28,2.96C290.36,212.8,291.38,213.17,292.61,213.15z"/>
							</g>
						</g>
						<circle class="st6" cx="127.69" cy="186.44" r="2.32"/>
						<circle class="st6" cx="292.09" cy="188.76" r="2.32"/>
					</g>
				</g>
			</g>
		</g>
	</g>
	<g>
		<g>
			<path class="st7" d="M188.88,86.97c0,1.52-1.12,2.45-2.94,2.45h-1.56v1.99h-1.28v-6.9h2.84
				C187.76,84.52,188.88,85.44,188.88,86.97z M187.59,86.97c0-0.87-0.58-1.37-1.71-1.37h-1.5v2.74h1.5
				C187.01,88.34,187.59,87.84,187.59,86.97z"/>
			<path class="st7" d="M194.77,91.42l-1.41-2.02c-0.09,0.01-0.18,0.01-0.27,0.01h-1.56v2.01h-1.28v-6.9h2.84
				c1.81,0,2.94,0.93,2.94,2.45c0,1.04-0.53,1.81-1.47,2.18l1.59,2.27H194.77z M193.04,85.6h-1.5v2.75h1.5
				c1.12,0,1.71-0.51,1.71-1.38S194.16,85.6,193.04,85.6z"/>
			<path class="st7" d="M196.97,87.96c0-2.04,1.58-3.55,3.72-3.55c2.14,0,3.72,1.5,3.72,3.55c0,2.05-1.58,3.55-3.72,3.55
				C198.54,91.51,196.97,90.01,196.97,87.96z M203.11,87.96c0-1.41-1.04-2.42-2.43-2.42c-1.39,0-2.42,1.02-2.42,2.42
				c0,1.41,1.04,2.42,2.42,2.42C202.07,90.39,203.11,89.38,203.11,87.96z"/>
			<path class="st7" d="M211.53,86.97c0,1.52-1.12,2.45-2.94,2.45h-1.56v1.99h-1.28v-6.9h2.84
				C210.41,84.52,211.53,85.44,211.53,86.97z M210.24,86.97c0-0.87-0.58-1.37-1.71-1.37h-1.5v2.74h1.5
				C209.66,88.34,210.24,87.84,210.24,86.97z"/>
			<path class="st7" d="M212.9,84.52h1.28v6.9h-1.28V84.52z"/>
			<path class="st7" d="M221.22,90.34v1.07h-5.17v-6.9h5.04v1.07h-3.76v1.79h3.33v1.05h-3.33v1.9H221.22z"/>
			<path class="st7" d="M222.65,84.52h3.02c2.24,0,3.77,1.38,3.77,3.45c0,2.07-1.53,3.45-3.77,3.45h-3.02V84.52z M225.6,90.33
				c1.54,0,2.53-0.94,2.53-2.37c0-1.43-1-2.37-2.53-2.37h-1.68v4.73H225.6z"/>
			<path class="st7" d="M235.26,89.82h-3.45l-0.68,1.6h-1.32l3.1-6.9h1.26l3.12,6.9h-1.34L235.26,89.82z M234.83,88.81l-1.3-3.02
				l-1.29,3.02H234.83z"/>
			<path class="st7" d="M238.16,84.52h3.02c2.24,0,3.76,1.38,3.76,3.45c0,2.07-1.53,3.45-3.76,3.45h-3.02V84.52z M241.12,90.33
				c1.54,0,2.53-0.94,2.53-2.37c0-1.43-1-2.37-2.53-2.37h-1.68v4.73H241.12z"/>
			<path class="st7" d="M251.47,90.34v1.07h-5.17v-6.9h5.04v1.07h-3.76v1.79h3.33v1.05h-3.33v1.9H251.47z"/>
			<path class="st7" d="M252.32,90.69l0.44-1c0.55,0.44,1.43,0.76,2.28,0.76c1.07,0,1.53-0.38,1.53-0.9c0-1.49-4.1-0.51-4.1-3.08
				c0-1.11,0.89-2.06,2.78-2.06c0.83,0,1.7,0.22,2.3,0.61l-0.4,1c-0.62-0.37-1.3-0.54-1.9-0.54c-1.06,0-1.5,0.41-1.5,0.94
				c0,1.47,4.09,0.51,4.09,3.05c0,1.1-0.9,2.05-2.79,2.05C253.96,91.51,252.89,91.18,252.32,90.69z"/>
		</g>
	</g>
	<g>
		<g>
			<path class="st7" d="M49.38,185.41h-3.45l-0.68,1.6h-1.32l3.1-6.9h1.26l3.12,6.9h-1.34L49.38,185.41z M48.95,184.41l-1.3-3.02
				l-1.29,3.02H48.95z"/>
			<path class="st7" d="M51.7,186.28l0.44-1c0.55,0.44,1.43,0.76,2.28,0.76c1.07,0,1.53-0.38,1.53-0.9c0-1.49-4.1-0.51-4.1-3.08
				c0-1.11,0.89-2.06,2.78-2.06c0.83,0,1.7,0.22,2.3,0.61l-0.4,1c-0.62-0.37-1.3-0.54-1.9-0.54c-1.06,0-1.5,0.41-1.5,0.94
				c0,1.47,4.09,0.51,4.09,3.05c0,1.1-0.9,2.05-2.79,2.05C53.34,187.11,52.27,186.77,51.7,186.28z"/>
			<path class="st7" d="M63.65,185.93v1.07h-5.17v-6.9h5.04v1.07h-3.76v1.79h3.33v1.05h-3.33v1.9H63.65z"/>
			<path class="st7" d="M64.49,186.28l0.44-1c0.55,0.44,1.43,0.76,2.28,0.76c1.07,0,1.53-0.38,1.53-0.9c0-1.49-4.1-0.51-4.1-3.08
				c0-1.11,0.89-2.06,2.78-2.06c0.83,0,1.7,0.22,2.3,0.61l-0.4,1c-0.62-0.37-1.3-0.54-1.9-0.54c-1.06,0-1.5,0.41-1.5,0.94
				c0,1.47,4.09,0.51,4.09,3.05c0,1.1-0.9,2.05-2.79,2.05C66.14,187.11,65.07,186.77,64.49,186.28z"/>
			<path class="st7" d="M70.78,183.56c0-2.04,1.58-3.55,3.72-3.55c2.14,0,3.72,1.5,3.72,3.55c0,2.05-1.58,3.55-3.72,3.55
				C72.36,187.11,70.78,185.6,70.78,183.56z M76.92,183.56c0-1.41-1.04-2.42-2.43-2.42c-1.39,0-2.42,1.02-2.42,2.42
				c0,1.41,1.04,2.42,2.42,2.42C75.89,185.98,76.92,184.97,76.92,183.56z"/>
			<path class="st7" d="M84.08,187.01l-1.41-2.02C82.58,185,82.49,185,82.41,185h-1.56v2.01h-1.28v-6.9h2.84
				c1.81,0,2.94,0.93,2.94,2.45c0,1.04-0.53,1.81-1.47,2.18l1.59,2.27H84.08z M82.35,181.19h-1.5v2.75h1.5
				c1.12,0,1.71-0.51,1.71-1.38S83.47,181.19,82.35,181.19z"/>
			<path class="st7" d="M87.91,178.2h1.45l-1.71,1.35h-1.06L87.91,178.2z M86.77,180.11h1.28v6.9h-1.28V180.11z"/>
			<path class="st7" d="M94.38,185.41h-3.45l-0.68,1.6h-1.32l3.1-6.9h1.26l3.12,6.9h-1.34L94.38,185.41z M93.96,184.41l-1.3-3.02
				l-1.29,3.02H93.96z"/>
			<path class="st7" d="M42.23,194.64c0-2.06,1.58-3.55,3.7-3.55c1.12,0,2.09,0.4,2.73,1.15l-0.83,0.78
				c-0.5-0.54-1.12-0.81-1.84-0.81c-1.43,0-2.46,1-2.46,2.42c0,1.42,1.04,2.42,2.46,2.42c0.72,0,1.34-0.27,1.84-0.82l0.83,0.79
				c-0.64,0.75-1.61,1.15-2.74,1.15C43.81,198.19,42.23,196.7,42.23,194.64z"/>
			<path class="st7" d="M49.39,194.64c0-2.04,1.58-3.55,3.72-3.55c2.14,0,3.72,1.5,3.72,3.55c0,2.05-1.58,3.55-3.72,3.55
				C50.97,198.19,49.39,196.68,49.39,194.64z M55.54,194.64c0-1.41-1.04-2.42-2.43-2.42c-1.39,0-2.42,1.02-2.42,2.42
				s1.04,2.42,2.42,2.42C54.5,197.07,55.54,196.05,55.54,194.64z"/>
			<path class="st7" d="M64.31,191.19v6.9h-1.05l-3.8-4.67v4.67h-1.27v-6.9h1.05l3.8,4.67v-4.67H64.31z"/>
			<path class="st7" d="M67.56,192.28h-2.29v-1.08h5.86v1.08h-2.29v5.82h-1.28V192.28z"/>
			<path class="st7" d="M76.56,196.5h-3.45l-0.68,1.6h-1.32l3.1-6.9h1.26l3.12,6.9h-1.34L76.56,196.5z M76.14,195.49l-1.3-3.02
				l-1.29,3.02H76.14z"/>
			<path class="st7" d="M85.6,196.22c0,1.18-0.93,1.87-2.7,1.87h-3.43v-6.9h3.23c1.66,0,2.54,0.7,2.54,1.79
				c0,0.71-0.36,1.23-0.89,1.52C85.1,194.74,85.6,195.32,85.6,196.22z M80.75,192.2v1.9h1.81c0.89,0,1.39-0.32,1.39-0.95
				c0-0.64-0.5-0.96-1.39-0.96H80.75z M84.31,196.09c0-0.69-0.52-1-1.49-1h-2.07v1.99h2.07C83.79,197.09,84.31,196.78,84.31,196.09z
				"/>
			<path class="st7" d="M86.96,191.19h1.28v5.82h3.61v1.08h-4.89V191.19z"/>
			<path class="st7" d="M98.04,197.02v1.07h-5.17v-6.9h5.04v1.07h-3.76v1.79h3.33v1.05h-3.33v1.9H98.04z"/>
			<path class="st7" d="M52.76,206.74v2.43h-1.28v-2.42l-2.71-4.49h1.37l2.02,3.36l2.04-3.36h1.26L52.76,206.74z"/>
			<path class="st7" d="M59.02,202.27h1.28v5.82h3.61v1.08h-4.89V202.27z"/>
			<path class="st7" d="M70.09,208.1v1.07h-5.17v-6.9h5.04v1.07H66.2v1.79h3.33v1.05H66.2v1.9H70.09z"/>
			<path class="st7" d="M76.23,205.64h1.21v2.75c-0.72,0.58-1.72,0.88-2.7,0.88c-2.14,0-3.72-1.49-3.72-3.55s1.58-3.55,3.74-3.55
				c1.15,0,2.12,0.38,2.77,1.12l-0.81,0.79c-0.54-0.54-1.16-0.79-1.9-0.79c-1.47,0-2.5,1-2.5,2.42c0,1.4,1.04,2.42,2.49,2.42
				c0.49,0,0.98-0.1,1.42-0.35V205.64z"/>
			<path class="st7" d="M83.6,207.58h-3.45l-0.68,1.6h-1.32l3.1-6.9h1.26l3.12,6.9h-1.34L83.6,207.58z M83.17,206.57l-1.3-3.02
				l-1.29,3.02H83.17z"/>
			<path class="st7" d="M86.5,202.27h1.28v5.82h3.61v1.08H86.5V202.27z"/>
		</g>
	</g>
	<g>
		<g>
			<path class="st7" d="M316.58,187.75v2.1h3.33v1.08h-3.33v2.64h-1.28v-6.9h5.04v1.07H316.58z"/>
			<path class="st7" d="M321.58,186.68h1.28v6.9h-1.28V186.68z"/>
			<path class="st7" d="M330.85,186.68v6.9h-1.05l-3.8-4.67v4.67h-1.27v-6.9h1.05l3.8,4.67v-4.67H330.85z"/>
			<path class="st7" d="M337.17,191.98h-3.45l-0.68,1.6h-1.32l3.1-6.9h1.26l3.12,6.9h-1.34L337.17,191.98z M336.75,190.98l-1.3-3.02
				l-1.29,3.02H336.75z"/>
			<path class="st7" d="M346.21,186.68v6.9h-1.05l-3.8-4.67v4.67h-1.27v-6.9h1.05l3.8,4.67v-4.67H346.21z"/>
			<path class="st7" d="M347.56,190.13c0-2.06,1.58-3.55,3.7-3.55c1.12,0,2.09,0.4,2.73,1.15l-0.83,0.78
				c-0.5-0.54-1.12-0.81-1.84-0.81c-1.43,0-2.46,1.01-2.46,2.42c0,1.42,1.04,2.42,2.46,2.42c0.72,0,1.34-0.27,1.84-0.82l0.83,0.79
				c-0.64,0.75-1.61,1.15-2.74,1.15C349.14,193.68,347.56,192.19,347.56,190.13z"/>
			<path class="st7" d="M355.22,186.68h1.28v6.9h-1.28V186.68z"/>
			<path class="st7" d="M362.83,191.98h-3.45l-0.68,1.6h-1.32l3.1-6.9h1.26l3.12,6.9h-1.34L362.83,191.98z M362.41,190.98l-1.3-3.02
				l-1.29,3.02H362.41z"/>
			<path class="st7" d="M372.08,193.58l-0.01-4.57l-2.27,3.79h-0.57l-2.27-3.73v4.51h-1.22v-6.9h1.05l2.74,4.57l2.69-4.57h1.05
				l0.01,6.9H372.08z"/>
			<path class="st7" d="M375.15,186.68h1.28v6.9h-1.28V186.68z"/>
			<path class="st7" d="M383.46,192.5v1.07h-5.17v-6.9h5.04v1.07h-3.76v1.79h3.33v1.05h-3.33v1.9H383.46z"/>
			<path class="st7" d="M391.02,186.68v6.9h-1.05l-3.8-4.67v4.67h-1.27v-6.9h1.05l3.8,4.67v-4.67H391.02z"/>
			<path class="st7" d="M394.27,187.76h-2.29v-1.08h5.86v1.08h-2.29v5.82h-1.28V187.76z"/>
			<path class="st7" d="M398.3,190.13c0-2.04,1.58-3.55,3.72-3.55c2.14,0,3.72,1.5,3.72,3.55c0,2.05-1.58,3.55-3.72,3.55
				C399.88,193.68,398.3,192.17,398.3,190.13z M404.45,190.13c0-1.41-1.04-2.42-2.43-2.42c-1.39,0-2.42,1.02-2.42,2.42
				c0,1.41,1.04,2.42,2.42,2.42C403.41,192.55,404.45,191.54,404.45,190.13z"/>
			<path class="st7" d="M331.19,197.76v6.9h-1.28v-2.96h-3.57v2.96h-1.28v-6.9h1.28v2.85h3.57v-2.85H331.19z"/>
			<path class="st7" d="M333.04,197.76h1.28v6.9h-1.28V197.76z"/>
			<path class="st7" d="M341.96,200.21c0,1.52-1.12,2.46-2.94,2.46h-1.56v1.99h-1.28v-6.9h2.84
				C340.83,197.76,341.96,198.69,341.96,200.21z M340.67,200.21c0-0.87-0.58-1.37-1.71-1.37h-1.5v2.74h1.5
				C340.08,201.58,340.67,201.08,340.67,200.21z"/>
			<path class="st7" d="M342.84,201.21c0-2.04,1.58-3.55,3.72-3.55c2.14,0,3.72,1.5,3.72,3.55c0,2.05-1.58,3.55-3.72,3.55
				C344.42,204.76,342.84,203.25,342.84,201.21z M348.98,201.21c0-1.41-1.04-2.42-2.43-2.42c-1.39,0-2.42,1.02-2.42,2.42
				s1.04,2.42,2.42,2.42C347.95,203.64,348.98,202.62,348.98,201.21z"/>
			<path class="st7" d="M353.03,198.84h-2.29v-1.08h5.86v1.08h-2.29v5.82h-1.28V198.84z"/>
			<path class="st7" d="M362.73,203.59v1.07h-5.17v-6.9h5.04v1.07h-3.76v1.79h3.33v1.05h-3.33v1.9H362.73z"/>
			<path class="st7" d="M363.66,201.21c0-2.06,1.58-3.55,3.7-3.55c1.12,0,2.09,0.4,2.73,1.15l-0.83,0.78
				c-0.5-0.54-1.12-0.81-1.84-0.81c-1.43,0-2.46,1-2.46,2.42c0,1.42,1.04,2.42,2.46,2.42c0.72,0,1.34-0.27,1.84-0.82l0.83,0.79
				c-0.64,0.75-1.61,1.15-2.74,1.15C365.24,204.76,363.66,203.27,363.66,201.21z"/>
			<path class="st7" d="M375.79,203.06h-3.45l-0.68,1.6h-1.32l3.1-6.9h1.26l3.12,6.9h-1.34L375.79,203.06z M375.37,202.06l-1.3-3.02
				l-1.29,3.02H375.37z"/>
			<path class="st7" d="M383.21,204.66l-1.41-2.02c-0.09,0.01-0.18,0.01-0.27,0.01h-1.56v2.01h-1.28v-6.9h2.84
				c1.81,0,2.94,0.93,2.94,2.45c0,1.04-0.53,1.81-1.47,2.18l1.59,2.27H383.21z M381.47,198.84h-1.5v2.75h1.5
				c1.12,0,1.71-0.51,1.71-1.38C383.18,199.35,382.6,198.84,381.47,198.84z"/>
			<path class="st7" d="M385.9,197.76h1.28v6.9h-1.28V197.76z"/>
			<path class="st7" d="M388.54,201.21c0-2.04,1.58-3.55,3.72-3.55c2.14,0,3.72,1.5,3.72,3.55c0,2.05-1.58,3.55-3.72,3.55
				C390.12,204.76,388.54,203.25,388.54,201.21z M394.69,201.21c0-1.41-1.04-2.42-2.43-2.42c-1.39,0-2.42,1.02-2.42,2.42
				s1.04,2.42,2.42,2.42C393.65,203.64,394.69,202.62,394.69,201.21z"/>
		</g>
	</g>
	<g>
		<g>
			<path class="st7" d="M83.18,345.99h-3.45l-0.68,1.6h-1.32l3.1-6.9h1.26l3.12,6.9h-1.34L83.18,345.99z M82.76,344.98l-1.3-3.02
				l-1.29,3.02H82.76z"/>
			<path class="st7" d="M86.09,340.69h3.02c2.24,0,3.77,1.38,3.77,3.45c0,2.07-1.53,3.45-3.77,3.45h-3.02V340.69z M89.04,346.5
				c1.54,0,2.53-0.94,2.53-2.37c0-1.43-1-2.37-2.53-2.37h-1.68v4.73H89.04z"/>
			<path class="st7" d="M100.56,347.59l-0.01-4.57l-2.27,3.79h-0.57l-2.27-3.73v4.51h-1.22v-6.9h1.05l2.74,4.57l2.69-4.57h1.05
				l0.01,6.9H100.56z"/>
			<path class="st7" d="M103.63,340.69h1.28v6.9h-1.28V340.69z"/>
			<path class="st7" d="M112.9,340.69v6.9h-1.05l-3.8-4.67v4.67h-1.27v-6.9h1.05l3.8,4.67v-4.67H112.9z"/>
			<path class="st7" d="M114.75,340.69h1.28v6.9h-1.28V340.69z"/>
			<path class="st7" d="M117.31,346.86l0.44-1c0.55,0.44,1.43,0.76,2.28,0.76c1.07,0,1.53-0.38,1.53-0.9c0-1.49-4.1-0.51-4.1-3.08
				c0-1.11,0.89-2.06,2.78-2.06c0.83,0,1.7,0.22,2.3,0.61l-0.4,1c-0.62-0.37-1.3-0.54-1.9-0.54c-1.06,0-1.5,0.41-1.5,0.94
				c0,1.47,4.09,0.51,4.09,3.05c0,1.1-0.9,2.05-2.79,2.05C118.96,347.69,117.88,347.35,117.31,346.86z"/>
			<path class="st7" d="M125.49,341.77h-2.29v-1.08h5.86v1.08h-2.29v5.82h-1.28V341.77z"/>
			<path class="st7" d="M134.54,347.59l-1.41-2.02c-0.09,0.01-0.18,0.01-0.27,0.01h-1.56v2.01h-1.28v-6.9h2.84
				c1.81,0,2.94,0.93,2.94,2.45c0,1.04-0.53,1.81-1.47,2.18l1.59,2.27H134.54z M132.8,341.77h-1.5v2.75h1.5
				c1.12,0,1.71-0.51,1.71-1.38S133.92,341.77,132.8,341.77z"/>
			<path class="st7" d="M141.7,345.99h-3.45l-0.68,1.6h-1.32l3.1-6.9h1.26l3.12,6.9h-1.34L141.7,345.99z M141.27,344.98l-1.3-3.02
				l-1.29,3.02H141.27z"/>
			<path class="st7" d="M144.11,344.14c0-2.06,1.58-3.55,3.7-3.55c1.12,0,2.09,0.4,2.73,1.15l-0.83,0.78
				c-0.5-0.54-1.12-0.81-1.84-0.81c-1.43,0-2.46,1.01-2.46,2.42c0,1.42,1.04,2.42,2.46,2.42c0.72,0,1.34-0.27,1.84-0.82l0.83,0.79
				c-0.64,0.75-1.61,1.15-2.74,1.15C145.68,347.69,144.11,346.2,144.11,344.14z"/>
			<path class="st7" d="M151.76,340.69h1.28v6.9h-1.28V340.69z"/>
			<path class="st7" d="M154.41,344.14c0-2.04,1.58-3.55,3.72-3.55c2.14,0,3.72,1.5,3.72,3.55c0,2.05-1.58,3.55-3.72,3.55
				C155.99,347.69,154.41,346.18,154.41,344.14z M160.55,344.14c0-1.41-1.04-2.42-2.43-2.42c-1.39,0-2.42,1.02-2.42,2.42
				c0,1.41,1.04,2.42,2.42,2.42C159.52,346.56,160.55,345.55,160.55,344.14z M158.63,338.77h1.45l-1.71,1.35h-1.06L158.63,338.77z"
				/>
			<path class="st7" d="M169.33,340.69v6.9h-1.05l-3.8-4.67v4.67h-1.27v-6.9h1.05l3.8,4.67v-4.67H169.33z"/>
			<path class="st7" d="M78.22,351.77h3.02c2.24,0,3.76,1.38,3.76,3.45s-1.53,3.45-3.76,3.45h-3.02V351.77z M81.18,357.58
				c1.54,0,2.53-0.94,2.53-2.37s-1-2.37-2.53-2.37H79.5v4.73H81.18z"/>
			<path class="st7" d="M91.53,357.6v1.07h-5.17v-6.9h5.04v1.07h-3.76v1.79h3.33v1.05h-3.33v1.9H91.53z"/>
			<path class="st7" d="M101.45,354.22c0,1.52-1.12,2.46-2.94,2.46h-1.56v1.99h-1.28v-6.9h2.84
				C100.33,351.77,101.45,352.7,101.45,354.22z M100.16,354.22c0-0.87-0.58-1.37-1.71-1.37h-1.5v2.74h1.5
				C99.58,355.59,100.16,355.09,100.16,354.22z"/>
			<path class="st7" d="M107.34,358.67l-1.41-2.02c-0.09,0.01-0.18,0.01-0.27,0.01h-1.56v2.01h-1.28v-6.9h2.84
				c1.81,0,2.94,0.93,2.94,2.45c0,1.04-0.53,1.81-1.47,2.18l1.59,2.27H107.34z M105.61,352.85h-1.5v2.75h1.5
				c1.12,0,1.71-0.51,1.71-1.38C107.31,353.36,106.73,352.85,105.61,352.85z"/>
			<path class="st7" d="M109.53,355.22c0-2.04,1.58-3.55,3.72-3.55c2.14,0,3.72,1.5,3.72,3.55c0,2.05-1.58,3.55-3.72,3.55
				C111.11,358.77,109.53,357.26,109.53,355.22z M115.68,355.22c0-1.41-1.04-2.42-2.43-2.42c-1.39,0-2.42,1.02-2.42,2.42
				s1.04,2.42,2.42,2.42C114.64,357.64,115.68,356.63,115.68,355.22z"/>
			<path class="st7" d="M124.1,354.22c0,1.52-1.12,2.46-2.94,2.46h-1.56v1.99h-1.28v-6.9h2.84
				C122.97,351.77,124.1,352.7,124.1,354.22z M122.81,354.22c0-0.87-0.58-1.37-1.71-1.37h-1.5v2.74h1.5
				C122.22,355.59,122.81,355.09,122.81,354.22z"/>
			<path class="st7" d="M125.47,351.77h1.28v6.9h-1.28V351.77z"/>
			<path class="st7" d="M133.79,357.6v1.07h-5.17v-6.9h5.04v1.07h-3.76v1.79h3.33v1.05h-3.33v1.9H133.79z"/>
			<path class="st7" d="M135.21,351.77h3.02c2.24,0,3.77,1.38,3.77,3.45s-1.53,3.45-3.77,3.45h-3.02V351.77z M138.17,357.58
				c1.54,0,2.53-0.94,2.53-2.37s-1-2.37-2.53-2.37h-1.68v4.73H138.17z"/>
			<path class="st7" d="M147.83,357.07h-3.45l-0.68,1.6h-1.32l3.1-6.9h1.26l3.12,6.9h-1.34L147.83,357.07z M147.4,356.07l-1.3-3.02
				l-1.29,3.02H147.4z"/>
			<path class="st7" d="M150.73,351.77h3.02c2.24,0,3.76,1.38,3.76,3.45s-1.53,3.45-3.76,3.45h-3.02V351.77z M153.69,357.58
				c1.54,0,2.53-0.94,2.53-2.37s-1-2.37-2.53-2.37h-1.68v4.73H153.69z"/>
			<path class="st7" d="M164.04,357.6v1.07h-5.17v-6.9h5.04v1.07h-3.76v1.79h3.33v1.05h-3.33v1.9H164.04z"/>
			<path class="st7" d="M164.88,357.94l0.44-1c0.55,0.44,1.43,0.76,2.28,0.76c1.07,0,1.53-0.38,1.53-0.9c0-1.49-4.1-0.51-4.1-3.08
				c0-1.11,0.89-2.06,2.78-2.06c0.83,0,1.7,0.22,2.3,0.61l-0.4,1c-0.62-0.36-1.3-0.54-1.9-0.54c-1.06,0-1.5,0.41-1.5,0.94
				c0,1.47,4.09,0.51,4.09,3.05c0,1.1-0.9,2.05-2.79,2.05C166.53,358.77,165.46,358.43,164.88,357.94z"/>
		</g>
	</g>
	<g>
		<g>
			<path class="st7" d="M248.91,349.24l-1.41-2.02c-0.09,0.01-0.18,0.01-0.27,0.01h-1.56v2.01h-1.28v-6.9h2.84
				c1.81,0,2.94,0.93,2.94,2.45c0,1.04-0.53,1.81-1.47,2.18l1.59,2.27H248.91z M247.17,343.42h-1.5v2.75h1.5
				c1.12,0,1.71-0.51,1.71-1.38S248.3,343.42,247.17,343.42z"/>
			<path class="st7" d="M256.77,348.17v1.07h-5.17v-6.9h5.04v1.07h-3.76v1.79h3.33v1.05h-3.33v1.9H256.77z"/>
			<path class="st7" d="M264.33,342.34v6.9h-1.05l-3.8-4.67v4.67h-1.27v-6.9h1.05l3.8,4.67v-4.67H264.33z"/>
			<path class="st7" d="M267.57,343.42h-2.29v-1.08h5.86v1.08h-2.29v5.82h-1.28V343.42z"/>
			<path class="st7" d="M276.58,347.64h-3.45l-0.68,1.6h-1.32l3.1-6.9h1.26l3.12,6.9h-1.34L276.58,347.64z M276.16,346.64l-1.3-3.02
				l-1.29,3.02H276.16z"/>
			<path class="st7" d="M287.38,348.17v1.07h-5.17v-6.9h5.04v1.07h-3.76v1.79h3.33v1.05h-3.33v1.9H287.38z"/>
			<path class="st7" d="M294.93,342.34v6.9h-1.05l-3.8-4.67v4.67h-1.27v-6.9h1.05l3.8,4.67v-4.67H294.93z"/>
			<path class="st7" d="M299.5,342.34h3.02c2.24,0,3.76,1.38,3.76,3.45c0,2.07-1.53,3.45-3.76,3.45h-3.02V342.34z M302.46,348.16
				c1.54,0,2.53-0.94,2.53-2.37c0-1.43-1-2.37-2.53-2.37h-1.68v4.73H302.46z"/>
			<path class="st7" d="M307.14,345.79c0-2.04,1.58-3.55,3.72-3.55c2.14,0,3.72,1.5,3.72,3.55c0,2.05-1.58,3.55-3.72,3.55
				C308.72,349.34,307.14,347.83,307.14,345.79z M313.28,345.79c0-1.41-1.04-2.42-2.43-2.42c-1.39,0-2.42,1.02-2.42,2.42
				c0,1.41,1.04,2.42,2.42,2.42C312.25,348.21,313.28,347.2,313.28,345.79z M311.36,340.43h1.45l-1.71,1.35h-1.06L311.36,340.43z"/>
			<path class="st7" d="M315.93,342.34h1.28v5.82h3.61v1.08h-4.89V342.34z"/>
			<path class="st7" d="M326.3,347.64h-3.45l-0.68,1.6h-1.32l3.1-6.9h1.26l3.12,6.9H327L326.3,347.64z M325.88,346.64l-1.3-3.02
				l-1.29,3.02H325.88z"/>
			<path class="st7" d="M333.72,349.24l-1.41-2.02c-0.09,0.01-0.18,0.01-0.27,0.01h-1.56v2.01h-1.28v-6.9h2.84
				c1.81,0,2.94,0.93,2.94,2.45c0,1.04-0.53,1.81-1.47,2.18l1.59,2.27H333.72z M331.99,343.42h-1.5v2.75h1.5
				c1.12,0,1.71-0.51,1.71-1.38S333.11,343.42,331.99,343.42z"/>
			<path class="st7" d="M341.58,348.17v1.07h-5.17v-6.9h5.04v1.07h-3.76v1.79h3.33v1.05h-3.33v1.9H341.58z"/>
			<path class="st7" d="M342.43,348.51l0.44-1c0.55,0.44,1.43,0.76,2.28,0.76c1.07,0,1.53-0.38,1.53-0.9c0-1.49-4.1-0.51-4.1-3.08
				c0-1.11,0.89-2.06,2.78-2.06c0.83,0,1.7,0.22,2.3,0.61l-0.4,1c-0.62-0.37-1.3-0.54-1.9-0.54c-1.06,0-1.5,0.41-1.5,0.94
				c0,1.47,4.09,0.51,4.09,3.05c0,1.1-0.9,2.05-2.79,2.05C344.07,349.34,343,349,342.43,348.51z"/>
		</g>
	</g>
	<g>
		<path class="st5" d="M70.21,128.45l-28,16.12v24.92h26.07v-6.78h3.87v6.61h25.98v-24.92L70.21,128.45z M88.09,166.32h-3.87v-10.04
			l-13.74-7.93l-14.18,7.93v10.13h-3.87v-14l17.88-10.3l17.79,10.39V166.32z M65.19,159.71v6.69H59.2v-8.19l11.01-6.25l10.92,6.25
			v8.1h-6.25v-6.61H65.19z M95.4,166.32h-4.4v-15.85l-20.43-11.98l-21.13,12.06v15.85h-4.05v-19.99l24.83-14.18l25.18,14.18V166.32z
			"/>
	</g>
	<g>
		<g>
			<polygon class="st5" points="354.64,133.5 336.39,146.35 336.39,181.64 359.38,181.64 355.38,178.1 339.64,178.1 339.64,148.12 
				354.73,137.41 374.28,151.28 374.28,172.14 362.64,172.14 366.93,175.31 377.63,175.31 377.63,149.7 			"/>
			<polygon class="st5" points="357.43,131.64 360.69,129.49 384.15,146.25 384.15,181.36 364.32,181.36 356.87,175.49 
				342.72,175.49 342.72,149.89 355.1,140.67 357.71,142.72 346.16,151.47 346.16,172.33 357.99,172.33 365.81,178.19 
				380.52,178.19 380.52,148.12 			"/>
			<rect x="355.01" y="150.82" class="st5" width="3.91" height="3.91"/>
			<rect x="360.97" y="150.82" class="st5" width="3.91" height="3.91"/>
			<rect x="355.01" y="156.41" class="st5" width="3.91" height="3.91"/>
			<rect x="360.97" y="156.41" class="st5" width="3.91" height="3.91"/>
		</g>
	</g>
	<g>
		<path class="st5" d="M123.97,285.65l-23.79,17.08v25.52h12.77v5.89h4.58v-5.89h12.67v5.89h4.58v-5.89h13.06v-25.62L123.97,285.65z
			 M117.53,313.26h12.67v10.53h-12.67V313.26z M143.27,323.79h-8.48v-14.33h-4.58h-12.67h-4.58v14.33h-8.29v-18.97l19.3-13.66
			l19.3,13.47V323.79z"/>
	</g>
	<g>
		<g>
			<path class="st5" d="M300.08,314.44c-0.27-0.4-0.62-0.72-1.04-0.96c-0.42-0.24-0.87-0.41-1.35-0.52s-0.93-0.21-1.35-0.31
				c-0.42-0.1-0.76-0.21-1.04-0.33c-0.27-0.13-0.41-0.32-0.41-0.58c0-0.32,0.13-0.55,0.4-0.69s0.54-0.2,0.82-0.2
				c0.79,0,1.43,0.3,1.92,0.9l2.03-2.01c-0.5-0.53-1.11-0.9-1.83-1.1c-0.4-0.11-0.79-0.19-1.19-0.24v-1.88H295v1.91
				c-0.19,0.03-0.38,0.07-0.56,0.12c-0.54,0.14-1.03,0.36-1.44,0.65c-0.42,0.3-0.76,0.67-1.01,1.13c-0.26,0.46-0.39,1-0.39,1.63
				c0,0.68,0.14,1.22,0.41,1.62c0.27,0.4,0.62,0.72,1.04,0.94c0.42,0.22,0.87,0.39,1.35,0.5s0.93,0.21,1.35,0.31
				c0.42,0.1,0.76,0.21,1.04,0.35c0.27,0.14,0.41,0.35,0.41,0.63c0,0.29-0.15,0.5-0.46,0.61c-0.31,0.11-0.65,0.17-1.04,0.17
				c-0.5,0-0.94-0.1-1.31-0.3c-0.38-0.2-0.72-0.49-1.03-0.87l-2.01,2.23c0.53,0.55,1.18,0.92,1.94,1.14
				c0.58,0.16,1.16,0.26,1.73,0.3v1.5h2.05v-1.61c0.08-0.01,0.16-0.02,0.24-0.04c0.59-0.11,1.12-0.3,1.59-0.57
				c0.47-0.27,0.86-0.63,1.16-1.08c0.3-0.45,0.45-1.02,0.45-1.71C300.48,315.38,300.35,314.84,300.08,314.44"/>
			<path class="st5" d="M296.13,327.81c-7.61,0-13.81-6.19-13.81-13.81s6.19-13.8,13.81-13.8c7.61,0,13.81,6.19,13.81,13.8
				S303.74,327.81,296.13,327.81 M296.13,302.8c-6.18,0-11.2,5.03-11.2,11.2c0,6.18,5.02,11.2,11.2,11.2c6.18,0,11.2-5.02,11.2-11.2
				C307.33,307.83,302.31,302.8,296.13,302.8"/>
			<path class="st5" d="M279.35,314.26c0,1.22-0.99,2.21-2.21,2.21c-1.22,0-2.22-0.99-2.22-2.21s0.99-2.21,2.22-2.21
				C278.36,312.04,279.35,313.04,279.35,314.26"/>
			<path class="st5" d="M317.04,314.26c0,1.22-0.99,2.21-2.21,2.21c-1.22,0-2.22-0.99-2.22-2.21s0.99-2.21,2.22-2.21
				C316.05,312.04,317.04,313.04,317.04,314.26"/>
			<path class="st5" d="M331.91,323.47c0-0.88-0.66-1.6-1.51-1.7v-0.01h-0.15c-0.02,0-0.04,0-0.06,0c-0.02,0-0.04,0-0.06,0h-19.22
				c-0.02,0-0.04,0-0.06,0s-0.04,0-0.06,0h-0.04c-0.9,0.05-1.62,0.8-1.62,1.71c0,0.95,0.77,1.72,1.72,1.72c0.06,0,0.12,0,0.18-0.01
				h18.98c0.06,0.01,0.12,0.01,0.18,0.01c0.06,0,0.12,0,0.18-0.01h0.02v0C331.25,325.07,331.91,324.35,331.91,323.47"/>
			<path class="st5" d="M332.05,327.85c0-0.88-0.66-1.6-1.51-1.7v-0.01h-0.15c-0.02,0-0.04,0-0.06,0c-0.02,0-0.04,0-0.06,0h-19.22
				c-0.02,0-0.04,0-0.06,0c-0.02,0-0.04,0-0.06,0h-0.04c-0.9,0.05-1.62,0.8-1.62,1.71c0,0.95,0.77,1.72,1.72,1.72
				c0.06,0,0.12,0,0.18-0.01h18.98c0.06,0.01,0.12,0.01,0.18,0.01c0.06,0,0.12,0,0.18-0.01h0.02v0
				C331.39,329.46,332.05,328.73,332.05,327.85"/>
			<path class="st5" d="M331.91,332.24c0-0.88-0.66-1.6-1.51-1.7v-0.01h-0.15c-0.02,0-0.04,0-0.06,0c-0.02,0-0.04,0-0.06,0h-19.22
				c-0.02,0-0.04,0-0.06,0s-0.04,0-0.06,0h-0.04c-0.9,0.05-1.62,0.8-1.62,1.71c0,0.95,0.77,1.72,1.72,1.72c0.06,0,0.12,0,0.18-0.01
				h18.98c0.06,0.01,0.12,0.01,0.18,0.01c0.06,0,0.12,0,0.18-0.01h0.02v0C331.25,333.85,331.91,333.12,331.91,332.24"/>
			<polygon class="st5" points="268.52,330.96 268.52,297.69 324.19,297.69 324.19,320.18 327.32,320.18 327.32,294.91 
				265.63,294.91 265.63,334.06 307.49,334.06 307.49,330.96 			"/>
		</g>
	</g>
</g>
</svg>
